<mxfile host="app.diagrams.net" modified="2022-10-13T14:58:19.142Z" agent="5.0 (Windows NT 10.0; Win64; x64) AppleWebKit/537.36 (KHTML, like Gecko) Chrome/106.0.0.0 Safari/537.36" etag="jUmGG6W2Ozsq3Cakg6oJ" version="20.3.6" type="github" pages="2">
  <diagram id="2hNhsOwWdziKLbeww6aA" name="Trang-1">
    <mxGraphModel dx="1138" dy="2839" grid="1" gridSize="10" guides="1" tooltips="1" connect="1" arrows="1" fold="1" page="1" pageScale="1" pageWidth="1654" pageHeight="2336" background="#ffffff" math="0" shadow="0">
      <root>
        <mxCell id="0" />
        <mxCell id="1" parent="0" />
        <mxCell id="PMw-Dkj1WIOhPgnz25RH-4" value="Người dân" style="shape=umlActor;verticalLabelPosition=bottom;verticalAlign=top;html=1;" parent="1" vertex="1">
          <mxGeometry x="390" y="-1215" width="30" height="60" as="geometry" />
        </mxCell>
        <mxCell id="PMw-Dkj1WIOhPgnz25RH-33" value="" style="rounded=0;whiteSpace=wrap;html=1;fillColor=none;" parent="1" vertex="1">
          <mxGeometry x="520" y="-1820" width="540" height="730" as="geometry" />
        </mxCell>
        <mxCell id="PMw-Dkj1WIOhPgnz25RH-1" value="Back officer" style="shape=umlActor;verticalLabelPosition=bottom;verticalAlign=top;html=1;" parent="1" vertex="1">
          <mxGeometry x="1090" y="-1520" width="30" height="60" as="geometry" />
        </mxCell>
        <mxCell id="PMw-Dkj1WIOhPgnz25RH-2" value="Janitor" style="shape=umlActor;verticalLabelPosition=bottom;verticalAlign=top;html=1;" parent="1" vertex="1">
          <mxGeometry x="330" y="-1610" width="30" height="60" as="geometry" />
        </mxCell>
        <mxCell id="PMw-Dkj1WIOhPgnz25RH-3" value="Collector" style="shape=umlActor;verticalLabelPosition=bottom;verticalAlign=top;html=1;" parent="1" vertex="1">
          <mxGeometry x="330" y="-1470" width="30" height="60" as="geometry" />
        </mxCell>
        <mxCell id="PMw-Dkj1WIOhPgnz25RH-10" value="Google map" style="shape=umlActor;verticalLabelPosition=bottom;verticalAlign=top;html=1;" parent="1" vertex="1">
          <mxGeometry x="1080" y="-1210" width="30" height="60" as="geometry" />
        </mxCell>
        <mxCell id="PMw-Dkj1WIOhPgnz25RH-14" value="Quản lý nhân viên" style="ellipse;whiteSpace=wrap;html=1;" parent="1" vertex="1">
          <mxGeometry x="897" y="-1390" width="140" height="70" as="geometry" />
        </mxCell>
        <mxCell id="PMw-Dkj1WIOhPgnz25RH-15" value="Quản lí phương tiện" style="ellipse;whiteSpace=wrap;html=1;" parent="1" vertex="1">
          <mxGeometry x="780" y="-1500" width="140" height="70" as="geometry" />
        </mxCell>
        <mxCell id="PMw-Dkj1WIOhPgnz25RH-16" value="Quản lí MCPs" style="ellipse;whiteSpace=wrap;html=1;" parent="1" vertex="1">
          <mxGeometry x="800" y="-1770" width="140" height="70" as="geometry" />
        </mxCell>
        <mxCell id="PMw-Dkj1WIOhPgnz25RH-17" value="Giao nhiệm vụ" style="ellipse;whiteSpace=wrap;html=1;" parent="1" vertex="1">
          <mxGeometry x="897" y="-1275" width="140" height="70" as="geometry" />
        </mxCell>
        <mxCell id="PMw-Dkj1WIOhPgnz25RH-18" value="gán phương tiện" style="ellipse;whiteSpace=wrap;html=1;" parent="1" vertex="1">
          <mxGeometry x="757" y="-1585" width="140" height="70" as="geometry" />
        </mxCell>
        <mxCell id="PMw-Dkj1WIOhPgnz25RH-19" value="Tạo tuyến đường" style="ellipse;whiteSpace=wrap;html=1;" parent="1" vertex="1">
          <mxGeometry x="840" y="-1680" width="140" height="70" as="geometry" />
        </mxCell>
        <mxCell id="PMw-Dkj1WIOhPgnz25RH-20" value="Gửi tin nhắn" style="ellipse;whiteSpace=wrap;html=1;" parent="1" vertex="1">
          <mxGeometry x="700" y="-1350" width="140" height="70" as="geometry" />
        </mxCell>
        <mxCell id="PMw-Dkj1WIOhPgnz25RH-21" value="Xem lịch làm việc" style="ellipse;whiteSpace=wrap;html=1;" parent="1" vertex="1">
          <mxGeometry x="570" y="-1525" width="140" height="70" as="geometry" />
        </mxCell>
        <mxCell id="PMw-Dkj1WIOhPgnz25RH-22" value="Chấm công" style="ellipse;whiteSpace=wrap;html=1;" parent="1" vertex="1">
          <mxGeometry x="570" y="-1760" width="140" height="70" as="geometry" />
        </mxCell>
        <mxCell id="PMw-Dkj1WIOhPgnz25RH-23" value="Cập nhật MCPs" style="ellipse;whiteSpace=wrap;html=1;" parent="1" vertex="1">
          <mxGeometry x="530" y="-1350" width="140" height="70" as="geometry" />
        </mxCell>
        <mxCell id="PMw-Dkj1WIOhPgnz25RH-24" value="Phản hồi" style="ellipse;whiteSpace=wrap;html=1;" parent="1" vertex="1">
          <mxGeometry x="550" y="-1220" width="140" height="70" as="geometry" />
        </mxCell>
        <mxCell id="PMw-Dkj1WIOhPgnz25RH-25" value="Nhận thông báo MCPs đầy" style="ellipse;whiteSpace=wrap;html=1;" parent="1" vertex="1">
          <mxGeometry x="550" y="-1630" width="140" height="70" as="geometry" />
        </mxCell>
        <mxCell id="PMw-Dkj1WIOhPgnz25RH-41" value="UMC 2.0" style="text;html=1;strokeColor=none;fillColor=none;align=center;verticalAlign=middle;whiteSpace=wrap;rounded=0;" parent="1" vertex="1">
          <mxGeometry x="767" y="-1820" width="60" height="30" as="geometry" />
        </mxCell>
        <mxCell id="PMw-Dkj1WIOhPgnz25RH-49" style="edgeStyle=orthogonalEdgeStyle;rounded=0;orthogonalLoop=1;jettySize=auto;html=1;exitX=0.5;exitY=1;exitDx=0;exitDy=0;" parent="1" source="PMw-Dkj1WIOhPgnz25RH-15" target="PMw-Dkj1WIOhPgnz25RH-15" edge="1">
          <mxGeometry relative="1" as="geometry" />
        </mxCell>
        <mxCell id="PMw-Dkj1WIOhPgnz25RH-54" value="Staff" style="shape=umlActor;verticalLabelPosition=bottom;verticalAlign=top;html=1;outlineConnect=0;" parent="1" vertex="1">
          <mxGeometry x="420" y="-1540" width="30" height="60" as="geometry" />
        </mxCell>
        <mxCell id="PMw-Dkj1WIOhPgnz25RH-61" value="" style="html=1;verticalAlign=bottom;endArrow=block;rounded=0;strokeColor=default;exitX=0.5;exitY=0.5;exitDx=0;exitDy=0;exitPerimeter=0;" parent="1" source="PMw-Dkj1WIOhPgnz25RH-54" target="PMw-Dkj1WIOhPgnz25RH-22" edge="1">
          <mxGeometry width="80" relative="1" as="geometry">
            <mxPoint x="540" y="-1530" as="sourcePoint" />
            <mxPoint x="420" y="-1470" as="targetPoint" />
          </mxGeometry>
        </mxCell>
        <mxCell id="PMw-Dkj1WIOhPgnz25RH-62" value="" style="html=1;verticalAlign=bottom;endArrow=block;rounded=0;strokeColor=default;exitX=0.5;exitY=0.5;exitDx=0;exitDy=0;exitPerimeter=0;" parent="1" source="PMw-Dkj1WIOhPgnz25RH-54" target="PMw-Dkj1WIOhPgnz25RH-25" edge="1">
          <mxGeometry width="80" relative="1" as="geometry">
            <mxPoint x="400" y="-1555.53" as="sourcePoint" />
            <mxPoint x="480" y="-1555.53" as="targetPoint" />
          </mxGeometry>
        </mxCell>
        <mxCell id="PMw-Dkj1WIOhPgnz25RH-63" value="" style="html=1;verticalAlign=bottom;endArrow=block;rounded=0;strokeColor=default;exitX=0.5;exitY=0.5;exitDx=0;exitDy=0;exitPerimeter=0;" parent="1" source="PMw-Dkj1WIOhPgnz25RH-54" target="PMw-Dkj1WIOhPgnz25RH-21" edge="1">
          <mxGeometry width="80" relative="1" as="geometry">
            <mxPoint x="540" y="-1530" as="sourcePoint" />
            <mxPoint x="620" y="-1530" as="targetPoint" />
          </mxGeometry>
        </mxCell>
        <mxCell id="PMw-Dkj1WIOhPgnz25RH-64" value="" style="html=1;verticalAlign=bottom;endArrow=block;rounded=0;strokeColor=default;exitX=0.5;exitY=0.5;exitDx=0;exitDy=0;exitPerimeter=0;" parent="1" source="PMw-Dkj1WIOhPgnz25RH-54" target="PMw-Dkj1WIOhPgnz25RH-23" edge="1">
          <mxGeometry width="80" relative="1" as="geometry">
            <mxPoint x="400" y="-1550" as="sourcePoint" />
            <mxPoint x="480" y="-1555.53" as="targetPoint" />
          </mxGeometry>
        </mxCell>
        <mxCell id="PMw-Dkj1WIOhPgnz25RH-67" value="" style="html=1;verticalAlign=bottom;endArrow=block;rounded=0;strokeColor=default;exitX=0.5;exitY=0.5;exitDx=0;exitDy=0;exitPerimeter=0;" parent="1" source="PMw-Dkj1WIOhPgnz25RH-4" target="PMw-Dkj1WIOhPgnz25RH-24" edge="1">
          <mxGeometry width="80" relative="1" as="geometry">
            <mxPoint x="550" y="-1290" as="sourcePoint" />
            <mxPoint x="630" y="-1290" as="targetPoint" />
          </mxGeometry>
        </mxCell>
        <mxCell id="PMw-Dkj1WIOhPgnz25RH-68" value="" style="html=1;verticalAlign=bottom;endArrow=block;rounded=0;strokeColor=default;entryX=1;entryY=0.5;entryDx=0;entryDy=0;exitX=0.5;exitY=0.5;exitDx=0;exitDy=0;exitPerimeter=0;" parent="1" source="PMw-Dkj1WIOhPgnz25RH-1" target="PMw-Dkj1WIOhPgnz25RH-16" edge="1">
          <mxGeometry width="80" relative="1" as="geometry">
            <mxPoint x="850" y="-1500" as="sourcePoint" />
            <mxPoint x="930" y="-1500" as="targetPoint" />
          </mxGeometry>
        </mxCell>
        <mxCell id="PMw-Dkj1WIOhPgnz25RH-69" value="" style="html=1;verticalAlign=bottom;endArrow=block;rounded=0;strokeColor=default;exitX=0.5;exitY=0.5;exitDx=0;exitDy=0;exitPerimeter=0;entryX=1;entryY=1;entryDx=0;entryDy=0;" parent="1" source="PMw-Dkj1WIOhPgnz25RH-1" target="PMw-Dkj1WIOhPgnz25RH-19" edge="1">
          <mxGeometry width="80" relative="1" as="geometry">
            <mxPoint x="850" y="-1500" as="sourcePoint" />
            <mxPoint x="930" y="-1500" as="targetPoint" />
          </mxGeometry>
        </mxCell>
        <mxCell id="PMw-Dkj1WIOhPgnz25RH-70" value="" style="html=1;verticalAlign=bottom;endArrow=block;rounded=0;strokeColor=default;entryX=1;entryY=0.5;entryDx=0;entryDy=0;exitX=0.5;exitY=0.5;exitDx=0;exitDy=0;exitPerimeter=0;" parent="1" source="PMw-Dkj1WIOhPgnz25RH-1" target="PMw-Dkj1WIOhPgnz25RH-18" edge="1">
          <mxGeometry width="80" relative="1" as="geometry">
            <mxPoint x="850" y="-1500" as="sourcePoint" />
            <mxPoint x="930" y="-1500" as="targetPoint" />
          </mxGeometry>
        </mxCell>
        <mxCell id="PMw-Dkj1WIOhPgnz25RH-71" value="" style="html=1;verticalAlign=bottom;endArrow=block;rounded=0;strokeColor=default;entryX=0.5;entryY=0;entryDx=0;entryDy=0;exitX=0.5;exitY=0.5;exitDx=0;exitDy=0;exitPerimeter=0;" parent="1" source="PMw-Dkj1WIOhPgnz25RH-1" target="PMw-Dkj1WIOhPgnz25RH-14" edge="1">
          <mxGeometry width="80" relative="1" as="geometry">
            <mxPoint x="1175" y="-1600" as="sourcePoint" />
            <mxPoint x="1010" y="-1490" as="targetPoint" />
          </mxGeometry>
        </mxCell>
        <mxCell id="PMw-Dkj1WIOhPgnz25RH-72" value="" style="html=1;verticalAlign=bottom;endArrow=block;rounded=0;strokeColor=default;entryX=1;entryY=0;entryDx=0;entryDy=0;exitX=0.5;exitY=0.5;exitDx=0;exitDy=0;exitPerimeter=0;" parent="1" source="PMw-Dkj1WIOhPgnz25RH-1" target="PMw-Dkj1WIOhPgnz25RH-15" edge="1">
          <mxGeometry width="80" relative="1" as="geometry">
            <mxPoint x="1170" y="-1600" as="sourcePoint" />
            <mxPoint x="1010" y="-1400" as="targetPoint" />
          </mxGeometry>
        </mxCell>
        <mxCell id="PMw-Dkj1WIOhPgnz25RH-73" value="" style="html=1;verticalAlign=bottom;endArrow=block;rounded=0;strokeColor=default;entryX=1;entryY=0;entryDx=0;entryDy=0;exitX=0.5;exitY=0.5;exitDx=0;exitDy=0;exitPerimeter=0;" parent="1" source="PMw-Dkj1WIOhPgnz25RH-1" target="PMw-Dkj1WIOhPgnz25RH-17" edge="1">
          <mxGeometry width="80" relative="1" as="geometry">
            <mxPoint x="1170" y="-1600" as="sourcePoint" />
            <mxPoint x="1030" y="-1410" as="targetPoint" />
          </mxGeometry>
        </mxCell>
        <mxCell id="PMw-Dkj1WIOhPgnz25RH-74" value="" style="html=1;verticalAlign=bottom;endArrow=block;rounded=0;strokeColor=default;entryX=0.5;entryY=0;entryDx=0;entryDy=0;exitX=0.5;exitY=0.5;exitDx=0;exitDy=0;exitPerimeter=0;" parent="1" source="PMw-Dkj1WIOhPgnz25RH-54" target="PMw-Dkj1WIOhPgnz25RH-20" edge="1">
          <mxGeometry width="80" relative="1" as="geometry">
            <mxPoint x="420" y="-1530" as="sourcePoint" />
            <mxPoint x="760" y="-1340" as="targetPoint" />
          </mxGeometry>
        </mxCell>
        <mxCell id="PMw-Dkj1WIOhPgnz25RH-75" value="" style="html=1;verticalAlign=bottom;endArrow=block;rounded=0;strokeColor=default;exitX=0.5;exitY=0.5;exitDx=0;exitDy=0;exitPerimeter=0;" parent="1" source="PMw-Dkj1WIOhPgnz25RH-1" target="PMw-Dkj1WIOhPgnz25RH-20" edge="1">
          <mxGeometry width="80" relative="1" as="geometry">
            <mxPoint x="680" y="-1340" as="sourcePoint" />
            <mxPoint x="760" y="-1340" as="targetPoint" />
          </mxGeometry>
        </mxCell>
        <mxCell id="PMw-Dkj1WIOhPgnz25RH-76" value="" style="endArrow=block;endSize=16;endFill=0;html=1;rounded=0;strokeColor=default;entryX=0;entryY=0.3333333333333333;entryDx=0;entryDy=0;entryPerimeter=0;exitX=0.5;exitY=0.5;exitDx=0;exitDy=0;exitPerimeter=0;" parent="1" source="PMw-Dkj1WIOhPgnz25RH-3" target="PMw-Dkj1WIOhPgnz25RH-54" edge="1">
          <mxGeometry width="160" relative="1" as="geometry">
            <mxPoint x="150" y="-1700" as="sourcePoint" />
            <mxPoint x="310" y="-1700" as="targetPoint" />
          </mxGeometry>
        </mxCell>
        <mxCell id="PMw-Dkj1WIOhPgnz25RH-77" value="" style="endArrow=block;endSize=16;endFill=0;html=1;rounded=0;strokeColor=default;exitX=0.5;exitY=0.5;exitDx=0;exitDy=0;exitPerimeter=0;" parent="1" source="PMw-Dkj1WIOhPgnz25RH-2" edge="1">
          <mxGeometry width="160" relative="1" as="geometry">
            <mxPoint x="100" y="-1632" as="sourcePoint" />
            <mxPoint x="420" y="-1520" as="targetPoint" />
          </mxGeometry>
        </mxCell>
        <mxCell id="PMw-Dkj1WIOhPgnz25RH-79" value="Hiện bản đồ" style="ellipse;whiteSpace=wrap;html=1;" parent="1" vertex="1">
          <mxGeometry x="740" y="-1205" width="140" height="70" as="geometry" />
        </mxCell>
        <mxCell id="PMw-Dkj1WIOhPgnz25RH-80" value="" style="html=1;verticalAlign=bottom;endArrow=block;rounded=0;strokeColor=default;entryX=1;entryY=0.5;entryDx=0;entryDy=0;exitX=0.5;exitY=0.5;exitDx=0;exitDy=0;exitPerimeter=0;" parent="1" source="PMw-Dkj1WIOhPgnz25RH-10" target="PMw-Dkj1WIOhPgnz25RH-79" edge="1">
          <mxGeometry width="80" relative="1" as="geometry">
            <mxPoint x="927" y="-1160" as="sourcePoint" />
            <mxPoint x="1007" y="-1160" as="targetPoint" />
          </mxGeometry>
        </mxCell>
      </root>
    </mxGraphModel>
  </diagram>
  <diagram id="yLvqcaFeyg_m411qNX9s" name="Trang-2">
    <mxGraphModel dx="1751" dy="3110" grid="1" gridSize="10" guides="1" tooltips="1" connect="1" arrows="1" fold="1" page="1" pageScale="1" pageWidth="1654" pageHeight="2336" math="0" shadow="0">
      <root>
        <mxCell id="0" />
        <mxCell id="1" parent="0" />
        <mxCell id="o04fq8_sVLRX_JDzTPeZ-2" value="" style="rounded=0;whiteSpace=wrap;html=1;fillColor=none;" vertex="1" parent="1">
          <mxGeometry x="505" y="-1840" width="730" height="730" as="geometry" />
        </mxCell>
        <mxCell id="o04fq8_sVLRX_JDzTPeZ-3" value="Back officer" style="shape=umlActor;verticalLabelPosition=bottom;verticalAlign=top;html=1;" vertex="1" parent="1">
          <mxGeometry x="400" y="-1515" width="30" height="60" as="geometry" />
        </mxCell>
        <mxCell id="o04fq8_sVLRX_JDzTPeZ-8" value="&lt;font style=&quot;font-size: 18px;&quot;&gt;gán điểm MCPs&lt;/font&gt;" style="ellipse;whiteSpace=wrap;html=1;" vertex="1" parent="1">
          <mxGeometry x="840" y="-1300" width="140" height="70" as="geometry" />
        </mxCell>
        <mxCell id="o04fq8_sVLRX_JDzTPeZ-9" value="&lt;font style=&quot;font-size: 18px;&quot;&gt;gán phương tiện&lt;/font&gt;" style="ellipse;whiteSpace=wrap;html=1;" vertex="1" parent="1">
          <mxGeometry x="850" y="-1650" width="140" height="70" as="geometry" />
        </mxCell>
        <mxCell id="o04fq8_sVLRX_JDzTPeZ-10" value="&lt;font style=&quot;font-size: 18px;&quot;&gt;Giao nhiệm vụ&lt;/font&gt;" style="ellipse;whiteSpace=wrap;html=1;" vertex="1" parent="1">
          <mxGeometry x="570" y="-1520" width="140" height="70" as="geometry" />
        </mxCell>
        <mxCell id="o04fq8_sVLRX_JDzTPeZ-11" value="&lt;font style=&quot;font-size: 18px;&quot;&gt;gán lịch làm việc&lt;/font&gt;" style="ellipse;whiteSpace=wrap;html=1;" vertex="1" parent="1">
          <mxGeometry x="840" y="-1420" width="140" height="70" as="geometry" />
        </mxCell>
        <mxCell id="o04fq8_sVLRX_JDzTPeZ-12" value="&lt;font style=&quot;font-size: 18px;&quot;&gt;gán tuyến đường&lt;/font&gt;" style="ellipse;whiteSpace=wrap;html=1;" vertex="1" parent="1">
          <mxGeometry x="850" y="-1540" width="140" height="70" as="geometry" />
        </mxCell>
        <mxCell id="o04fq8_sVLRX_JDzTPeZ-19" value="UMC 2.0" style="text;html=1;strokeColor=none;fillColor=none;align=center;verticalAlign=middle;whiteSpace=wrap;rounded=0;" vertex="1" parent="1">
          <mxGeometry x="767" y="-1820" width="60" height="30" as="geometry" />
        </mxCell>
        <mxCell id="o04fq8_sVLRX_JDzTPeZ-20" style="edgeStyle=orthogonalEdgeStyle;rounded=0;orthogonalLoop=1;jettySize=auto;html=1;exitX=0.5;exitY=1;exitDx=0;exitDy=0;" edge="1" parent="1" source="o04fq8_sVLRX_JDzTPeZ-8" target="o04fq8_sVLRX_JDzTPeZ-8">
          <mxGeometry relative="1" as="geometry" />
        </mxCell>
        <mxCell id="o04fq8_sVLRX_JDzTPeZ-32" value="" style="html=1;verticalAlign=bottom;endArrow=block;rounded=0;strokeColor=default;entryX=0;entryY=0.5;entryDx=0;entryDy=0;exitX=0.5;exitY=0.5;exitDx=0;exitDy=0;exitPerimeter=0;" edge="1" parent="1" source="o04fq8_sVLRX_JDzTPeZ-3" target="o04fq8_sVLRX_JDzTPeZ-10">
          <mxGeometry width="80" relative="1" as="geometry">
            <mxPoint x="1170" y="-1600" as="sourcePoint" />
            <mxPoint x="1030" y="-1410" as="targetPoint" />
          </mxGeometry>
        </mxCell>
        <mxCell id="o04fq8_sVLRX_JDzTPeZ-44" value="&lt;font style=&quot;font-size: 18px;&quot;&gt;Chọn khu vực&lt;/font&gt;" style="ellipse;whiteSpace=wrap;html=1;" vertex="1" parent="1">
          <mxGeometry x="840" y="-1780" width="140" height="70" as="geometry" />
        </mxCell>
        <mxCell id="o04fq8_sVLRX_JDzTPeZ-47" value="&lt;font style=&quot;font-size: 14px;&quot;&gt;&amp;lt;&amp;lt;include&amp;gt;&amp;gt;&lt;/font&gt;" style="endArrow=open;endSize=12;dashed=1;html=1;rounded=0;entryX=0;entryY=0.5;entryDx=0;entryDy=0;" edge="1" parent="1" source="o04fq8_sVLRX_JDzTPeZ-10" target="o04fq8_sVLRX_JDzTPeZ-44">
          <mxGeometry width="160" relative="1" as="geometry">
            <mxPoint x="630" y="-1510" as="sourcePoint" />
            <mxPoint x="790" y="-1510" as="targetPoint" />
            <Array as="points" />
          </mxGeometry>
        </mxCell>
        <mxCell id="o04fq8_sVLRX_JDzTPeZ-48" value="&lt;font style=&quot;font-size: 14px;&quot;&gt;&amp;lt;&amp;lt;include&amp;gt;&amp;gt;&lt;/font&gt;" style="endArrow=open;endSize=12;dashed=1;html=1;rounded=0;entryX=0;entryY=0.5;entryDx=0;entryDy=0;" edge="1" parent="1" source="o04fq8_sVLRX_JDzTPeZ-10" target="o04fq8_sVLRX_JDzTPeZ-9">
          <mxGeometry width="160" relative="1" as="geometry">
            <mxPoint x="661.5134738244765" y="-1403.3060446615966" as="sourcePoint" />
            <mxPoint x="819.999999999998" y="-1640" as="targetPoint" />
            <Array as="points" />
          </mxGeometry>
        </mxCell>
        <mxCell id="o04fq8_sVLRX_JDzTPeZ-49" value="&lt;font style=&quot;font-size: 14px;&quot;&gt;&amp;lt;&amp;lt;include&amp;gt;&amp;gt;&lt;/font&gt;" style="endArrow=open;endSize=12;dashed=1;html=1;rounded=0;entryX=0;entryY=0.5;entryDx=0;entryDy=0;" edge="1" parent="1" target="o04fq8_sVLRX_JDzTPeZ-12">
          <mxGeometry width="160" relative="1" as="geometry">
            <mxPoint x="700" y="-1505" as="sourcePoint" />
            <mxPoint x="829.999999999998" y="-1630" as="targetPoint" />
            <Array as="points">
              <mxPoint x="730" y="-1505" />
            </Array>
          </mxGeometry>
        </mxCell>
        <mxCell id="o04fq8_sVLRX_JDzTPeZ-50" value="&lt;font style=&quot;font-size: 14px;&quot;&gt;&amp;lt;&amp;lt;include&amp;gt;&amp;gt;&lt;/font&gt;" style="endArrow=open;endSize=12;dashed=1;html=1;rounded=0;exitX=1.009;exitY=0.635;exitDx=0;exitDy=0;exitPerimeter=0;entryX=-0.007;entryY=0.422;entryDx=0;entryDy=0;entryPerimeter=0;" edge="1" parent="1" source="o04fq8_sVLRX_JDzTPeZ-10" target="o04fq8_sVLRX_JDzTPeZ-11">
          <mxGeometry width="160" relative="1" as="geometry">
            <mxPoint x="695.072538937924" y="-1495.2899199918436" as="sourcePoint" />
            <mxPoint x="820" y="-1360" as="targetPoint" />
            <Array as="points" />
          </mxGeometry>
        </mxCell>
        <mxCell id="o04fq8_sVLRX_JDzTPeZ-51" value="&lt;font style=&quot;font-size: 14px;&quot;&gt;&amp;lt;&amp;lt;include&amp;gt;&amp;gt;&lt;/font&gt;" style="endArrow=open;endSize=12;dashed=1;html=1;rounded=0;entryX=0.043;entryY=0.341;entryDx=0;entryDy=0;entryPerimeter=0;exitX=1;exitY=1;exitDx=0;exitDy=0;" edge="1" parent="1" source="o04fq8_sVLRX_JDzTPeZ-10" target="o04fq8_sVLRX_JDzTPeZ-8">
          <mxGeometry width="160" relative="1" as="geometry">
            <mxPoint x="705.072538937924" y="-1485.2899199918436" as="sourcePoint" />
            <mxPoint x="849.999999999998" y="-1610" as="targetPoint" />
            <Array as="points" />
          </mxGeometry>
        </mxCell>
      </root>
    </mxGraphModel>
  </diagram>
</mxfile>
